<svg t="1675325886899" class="icon" viewBox="0 0 1024 1024" version="1.1" xmlns="http://www.w3.org/2000/svg" p-id="1012" width="500" height="500"><path d="M256 149.333333m42.666667 0l512 0q42.666667 0 42.666666 42.666667l0 768q0 42.666667-42.666666 42.666667l-512 0q-42.666667 0-42.666667-42.666667l0-768q0-42.666667 42.666667-42.666667Z" opacity=".3" p-id="1013"></path><path d="M778.666667 1024h-618.666667A32 32 0 0 1 128 992v-960A32 32 0 0 1 160 0h618.666667A117.546667 117.546667 0 0 1 896 117.333333v789.333334a117.546667 117.546667 0 0 1-117.333333 117.333333zM192 960h586.666667a53.333333 53.333333 0 0 0 53.333333-53.333333v-789.333334A53.333333 53.333333 0 0 0 778.666667 64H192z" p-id="1014"></path><path d="M501.333333 341.333333a31.146667 31.146667 0 0 1-18.56-5.973333L405.333333 279.466667l-76.8 54.826666a31.786667 31.786667 0 0 1-51.2-26.026666V32A32 32 0 0 1 309.333333 0h192A32 32 0 0 1 533.333333 32v277.333333a31.573333 31.573333 0 0 1-17.28 28.373334 30.72 30.72 0 0 1-14.72 3.626666zM405.333333 208.213333a31.573333 31.573333 0 0 1 18.56 5.973334L469.333333 247.04V64h-128v182.186667L385.92 213.333333a32.213333 32.213333 0 0 1 19.413333-5.12z" p-id="1015"></path></svg>