<svg t="1675326649867" class="icon" viewBox="0 0 1024 1024" version="1.1" xmlns="http://www.w3.org/2000/svg" p-id="4624" width="500" height="500"><path d="M528.844091 840.536531c-86.896477 0-173.798071 0.10745-260.694549-0.040933-47.764153-0.081867-60.105571-12.674002-60.105571-60.366522 0-86.047109 0.445151-172.094219-0.511667-258.131095-0.127917-11.5381-5.295758-24.253036-11.563684-34.2766-23.961385-38.329006-36.809354-80.086184-35.023635-124.672883 0.573068-14.229471 13.81502-28.146825 21.863549-41.849278 40.032859-68.1541 79.815-136.471933 121.024694-203.909699 4.927357-8.058762 17.959526-15.764473 27.297457-15.836107 132.040893-1.023335 264.097137-0.921001 396.143147-0.1535 8.161095 0.04605 19.847579 5.715325 23.879518 12.397701 49.176355 81.564903 98.623894 163.047939 144.192995 246.633928 7.644311 14.019687-0.133034 38.682057-5.546475 57.020217-7.101944 24.053485-19.555929 46.469635-28.479408 70.057503-4.952941 13.098686-10.345915 27.10814-10.509649 40.76966-0.972168 81.774686-0.429801 163.564723-0.496317 245.354759-0.04605 52.348693-14.336921 66.920981-65.887413 66.982381C699.234458 840.613281 614.036716 840.536531 528.844091 840.536531zM765.894489 509.99938c1.161485 2.102953 2.328087 4.205906 3.489572 6.308859 19.013561-10.514765 40.140309-18.466077 56.60065-32.066197 35.274352-29.149693 43.977814-72.216739 51.391875-114.603268 1.325219-7.588028-3.264438-17.678109-8.017828-24.636786-45.963084-67.340549-91.900585-134.716914-139.644271-200.788527-7.086594-9.803548-23.434368-18.07721-35.606935-18.23071-109.865228-1.386619-219.761155-0.675401-329.64685-0.931235-18.773077-0.04605-30.909829 7.802928-41.189227 23.659501-41.593444 64.137511-85.028891 127.082836-126.064618 191.568281-7.777345 12.223735-11.527867 29.732994-10.371499 44.264348 1.714086 21.571898 6.656793 43.870364 15.206756 63.717943 18.716794 43.466147 38.64624 67.514516 94.914306 61.59964 39.546775-4.159856 63.61561-26.678339 69.039284-71.387838 2.696487-22.216599 11.747884-32.15318 34.020767-31.278229 22.958517 0.900535 27.993324 14.792305 31.63128 34.701284 2.798821 15.309089 10.330565 32.055964 20.963014 43.205197 31.989447 33.560266 74.355509 29.605077 113.846 20.983481 30.607945-6.682376 55.434048-25.951771 56.406216-62.648558 0.567951-21.351881 7.434528-35.407385 32.06108-36.425603 26.494139-1.094968 33.662599 15.69284 36.558637 36.425603C698.032039 490.284835 719.455554 509.835647 765.894489 509.99938zM661.601319 436.636506c-6.656793 12.044651-13.497786 19.320562-14.633688 27.39979-4.026823 28.658492-19.412662 46.843152-44.755549 59.926488-32.613681 16.838975-67.335432 18.824244-101.617149 14.004337-56.687633-7.971778-92.949503-33.933783-93.829571-93.496987-0.035817-2.420187-3.407705-4.794324-8.611363-11.64555-2.312737 10.663149-3.371888 16.593374-4.901774 22.400799-7.388477 28.080308-15.160706 56.508549-48.408854 64.536611-22.75385 5.495308-45.952851 9.557947-69.177435 12.571668-13.89177 1.801069-28.203108 0.332584-43.35358 0.332584-0.614001 11.420417-1.355919 18.926578-1.366152 26.437855-0.0921 69.847719-0.133034 139.690321-0.020467 209.53804 0.056283 34.829201 17.826493 53.228761 53.269695 53.290161 163.53914 0.286534 327.078279 0.312117 490.622535-0.035817 34.491501-0.071633 56.75415-23.255284 56.825783-57.270934 0.143267-68.143866 0.086983-136.282616-0.010233-204.426483-0.010233-8.186679-0.777734-16.373357-1.187068-24.437236C700.56991 537.455454 692.408814 532.876031 661.601319 436.636506z" p-id="4625" fill="#ffffff"></path><path d="M802.197292 331.734453c4.359406 22.216599-8.698346 22.794783-22.242183 22.7999-46.802219 0.020467-93.59932 0.040933-140.401539 0.04605-116.573187 0.005117-233.151492 0.005117-349.724679-0.01535-6.805177 0-14.070854 1.222885-20.256913-0.787968-4.175206-1.355919-9.455614-7.424294-9.424914-11.33855 0.0307-3.924489 5.362275-9.583531 9.624464-11.236216 5.208774-2.026203 11.732534-0.767501 17.683226-0.767501 162.526038-0.020467 325.046959-0.035817 487.572998 0.040933C784.125199 330.470634 793.217529 331.294419 802.197292 331.734453z" p-id="4626" fill="#ffffff"></path></svg>