<svg t="1675326860866" class="icon" viewBox="0 0 1024 1024" version="1.1" xmlns="http://www.w3.org/2000/svg" p-id="5023" width="500" height="500"><path d="M925.956825 1023.967973H160.646619C89.216848 1023.967973 30.750105 966.115592 30.750105 895.402576V128.597424C30.750105 57.884408 89.216848 0.032027 160.646619 0.032027h767.255684c19.02473 0 34.609035 15.399997 34.609035 34.240418 0 18.840421-15.584305 34.240418-34.609035 34.240418H151.431196c-23.755314 0-43.00531 19.065687-43.00531 42.575256 0 23.509569 19.249996 42.554778 43.00531 42.554778h786.833339l0.409574 0.409575a61.23137 61.23137 0 0 1 53.818073 50.99201l0.737234 0.716755v751.630421c0 36.615949-30.267547 66.576315-67.272591 66.576315z m-123.691463-384.016937h-2.948935c-16.219145-112.264337-97.99067-203.415115-205.544902-234.768034 0.737234-3.645212 1.474468-8.027658 1.474467-11.67287 0-45.196533-36.841215-82.385886-83.245992-82.385886-46.425256 0-83.266471 36.45212-83.266471 82.385886 0 3.645212 0.737234 8.027658 1.474468 11.67287-107.554232 31.352919-189.325757 122.503697-205.544902 234.768034h-2.948936a40.977917 40.977917 0 0 0-41.24414 40.834565 40.957438 40.957438 0 0 0 41.24414 40.834566h580.551203a40.957438 40.957438 0 0 0 41.24414-40.834566 40.977917 40.977917 0 0 0-41.24414-40.834565z m0 123.220452H221.714159a40.977917 40.977917 0 0 0-41.24414 40.834565 40.957438 40.957438 0 0 0 41.24414 40.834566h580.551203a40.957438 40.957438 0 0 0 41.24414-40.834566 40.977917 40.977917 0 0 0-41.24414-40.834565zM512 393.510132c-13.27021 0-27.277654 1.453989-40.527385 2.928457 0-1.474468-0.737234-2.191223-0.737234-2.928457 0-22.588027 18.410368-40.834566 41.264619-40.834565 22.833772 0 41.24414 18.246539 41.24414 40.834565 0 1.453989-0.737234 2.191223-0.737234 2.928457a251.970158 251.970158 0 0 0-40.506906-2.928457z m-27.994409 108.639604c0 10.218881-7.372339 18.963294-17.693613 20.417283a164.915124 164.915124 0 0 0-93.567267 68.542272 20.335368 20.335368 0 0 1-19.147602 12.389625 20.478719 20.478719 0 0 1-20.62207-20.417283c0.737234-3.645212 2.211702-7.290424 4.402925-10.935635a202.595966 202.595966 0 0 1 118.61274-88.939077c0.737234-0.737234 2.211702-0.737234 2.948935-0.737234 1.474468 0 2.211702-0.737234 3.68617-0.737234 11.795742 0 21.379783 9.481647 21.379782 20.417283z" fill="#ffffff" p-id="5024"></path></svg>